<?xml version="1.0" encoding="UTF-8" standalone="no"?>
<svg
   xmlns:dc="http://purl.org/dc/elements/1.1/"
   xmlns:cc="http://creativecommons.org/ns#"
   xmlns:rdf="http://www.w3.org/1999/02/22-rdf-syntax-ns#"
   xmlns:svg="http://www.w3.org/2000/svg"
   xmlns="http://www.w3.org/2000/svg"
   xmlns:sodipodi="http://sodipodi.sourceforge.net/DTD/sodipodi-0.dtd"
   xmlns:inkscape="http://www.inkscape.org/namespaces/inkscape"
   id="svg8"
   version="1.1"
   viewBox="0 0 90 90"
   height="90mm"
   width="90mm"
   sodipodi:docname="logo1.svg"
   inkscape:version="0.92.4 (5da689c313, 2019-01-14)">
  <sodipodi:namedview
     pagecolor="#ffffff"
     bordercolor="#666666"
     borderopacity="1"
     objecttolerance="10"
     gridtolerance="10"
     guidetolerance="10"
     inkscape:pageopacity="0"
     inkscape:pageshadow="2"
     inkscape:window-width="1920"
     inkscape:window-height="1017"
     id="namedview24"
     showgrid="false"
     inkscape:zoom="2.492963"
     inkscape:cx="162.65785"
     inkscape:cy="170.07874"
     inkscape:window-x="-8"
     inkscape:window-y="-8"
     inkscape:window-maximized="1"
     inkscape:current-layer="svg8" />
  <defs
     id="defs2" />
  <metadata
     id="metadata5">
    <rdf:RDF>
      <cc:Work
         rdf:about="">
        <dc:format>image/svg+xml</dc:format>
        <dc:type
           rdf:resource="http://purl.org/dc/dcmitype/StillImage" />
        <dc:title />
      </cc:Work>
    </rdf:RDF>
  </metadata>
  <g
     transform="translate(0,-207)"
     id="layer1"
     style="fill:#283c8c;fill-opacity:1">
    <path
       transform="matrix(0.26458333,0,0,0.26458333,0,207)"
       id="path62"
       d="m 54.998995,311.48659 c -10.195042,-1.24405 -18.841022,-7.10591 -23.105283,-15.66506 -3.690063,-7.40662 -3.411221,2.85506 -3.411221,-125.53678 0,-114.019629 0.01489,-115.786313 1.008709,-119.672105 2.635439,-10.304469 10.815493,-18.539279 21.035014,-21.175821 2.7893,-0.719614 14.903327,-0.800033 119.703076,-0.794645 127.69426,0.0066 118.72511,-0.207539 125.16311,2.987793 7.95793,3.94971 13.78298,11.578577 15.68071,20.536484 1.11916,5.282804 1.11321,230.527234 -0.006,235.811904 -2.33613,11.02845 -10.18522,19.45972 -21.23922,22.81455 -2.84756,0.86421 -8.76346,0.91394 -117.39844,0.98678 -62.91988,0.0422 -115.763483,-0.0897 -117.430235,-0.2931 z M 113.02151,271.0728 c 9.65624,-18.44905 26.35151,-48.11148 37.81503,-67.18591 10.13131,-16.8577 12.44503,-20.43221 12.71161,-19.63838 0.1309,0.38983 1.40123,4.91354 2.82293,10.05269 8.09162,29.24948 15.36073,49.56949 21.52008,60.15704 7.68018,13.20175 17.31732,19.13994 31.06239,19.13994 3.71518,0 4.32698,-0.14026 5.95594,-1.36541 5.60928,-4.21879 11.23822,-10.7862 14.84707,-17.32242 2.03656,-3.68852 5.14932,-12.62979 5.68232,-16.32223 0.31994,-2.21638 0.22496,-2.56436 -1.0684,-3.91434 -0.78076,-0.81494 -1.71397,-1.4817 -2.07379,-1.4817 -0.35982,0 -2.13711,0.90763 -3.94954,2.01695 -5.02325,3.07458 -11.92514,6.4225 -16.28518,7.89953 -5.74126,1.94493 -11.89336,1.97312 -15.94868,0.0731 -7.88737,-3.69546 -13.85583,-14.00882 -20.00129,-34.56175 -2.90638,-9.72011 -11.66247,-41.8286 -11.66247,-42.76615 0,-0.70111 12.70249,-19.68037 23.38446,-34.93961 9.45199,-13.5022 18.37982,-25.40994 27.04455,-36.071421 7.12691,-8.769271 7.14969,-8.805566 7.14969,-11.392208 0,-2.402016 -0.20756,-2.846549 -2.79215,-5.979964 -1.53568,-1.861778 -4.09263,-4.4127 -5.68211,-5.668717 -3.7098,-2.931508 -9.06713,-5.950362 -9.95502,-5.609646 -0.37919,0.145507 -2.31981,2.607762 -4.31249,5.471676 -5.47261,7.865325 -30.88363,45.97529 -37.06537,55.58848 -2.99212,4.65301 -5.59515,8.46002 -5.78453,8.46002 -0.18937,0 -1.55509,-4.14793 -3.03492,-9.21764 -6.6432,-22.75868 -14.13715,-38.098906 -22.9831,-47.046726 -7.61007,-7.697705 -14.97691,-11.22736 -25.36401,-12.152597 l -3.58407,-0.319254 -2.60054,2.169498 c -7.1003,5.92341 -11.348351,15.301764 -12.66852,27.968047 -0.445659,4.275852 -0.413491,4.563272 0.629714,5.626632 l 1.099364,1.12061 7.828682,-2.54391 c 10.88729,-3.537798 15.1687,-4.48869 20.20305,-4.487059 12.11671,0.004 16.2127,6.806769 25.75531,42.775669 l 3.64584,13.74226 -9.47897,15.29963 c -16.66115,26.8921 -38.94349,64.43154 -48.436194,81.60126 l -3.389557,6.13079 1.63226,3.06244 c 2.877582,5.39889 12.520481,14.88739 14.799341,14.56236 0.72081,-0.1028 1.55842,-1.07286 2.53127,-2.93156 z"
       style="fill:#283c8c;stroke-width:0.50507629;fill-opacity:1" />
  </g>
  <g
     id="layer2" />
</svg>
